<svg xmlns="http://www.w3.org/2000/svg" viewBox="-859 -216.75 1731.2 1378.25" width="1731.2" height="1378.25" role="img" aria-label="Isometric map of the Poise control loop. Discovery publishes an immutable snapshot; health and load signals narrow it to an eligible candidate slice; a policy returns an index; Tower dispatches using a readiness permit it already held; and the classified outcome returns along a feedback lane into load trackers, the outcome window, health circuits, and metrics.">
  <style>
    .board-bg { fill: #131a16; }
    .g-minor { stroke: oklch(75% 0.03 145 / 0.05); stroke-width: 1; }
    .g-major { stroke: oklch(75% 0.03 145 / 0.1); stroke-width: 1; }
    .contact { fill: oklch(8% 0.01 145 / 0.5); }
    .face-top { stroke: oklch(96% 0.02 110 / 0.24); stroke-width: 1.4; }
    .edge { fill: none; stroke-width: 3.4; stroke-linecap: round; stroke-linejoin: round; }
    .edge-membership { stroke: oklch(72% 0.105 190); }
    .edge-request { stroke: oklch(88% 0.03 110); }
    .edge-feedback { stroke: oklch(66% 0.145 38); }
    .edge-adapter { stroke: oklch(62% 0.012 145); stroke-width: 2.6; stroke-dasharray: 9 7; }
    .edge-label text { font-family: ui-monospace, "SF Mono", "JetBrains Mono", Menlo, Consolas, monospace; font-size: 17px; fill: oklch(90% 0.02 110 / 0.94); }
    .edge-label-membership text { fill: oklch(84% 0.07 190); }
    .edge-label-feedback text { fill: oklch(82% 0.09 38); }
    .edge-label-adapter text { fill: oklch(74% 0.012 145); }
    .label-bg { fill: oklch(19% 0.016 145 / 0.86); }
    .pill-bg { fill: oklch(14% 0.014 145 / 0.94); stroke: oklch(72% 0.03 145 / 0.26); }
    .pill-stem { stroke: oklch(72% 0.03 145 / 0.34); stroke-width: 1.4; stroke-dasharray: 3 4; }
    .pill-title { font-family: ui-monospace, "SF Mono", "JetBrains Mono", Menlo, Consolas, monospace; font-size: 21px; font-weight: 500; fill: oklch(96% 0.015 110); }
    .pill-sub { font-family: ui-monospace, "SF Mono", "JetBrains Mono", Menlo, Consolas, monospace; font-size: 15px; fill: oklch(74% 0.02 145); }
    .pill-crate { font-family: ui-monospace, "SF Mono", "JetBrains Mono", Menlo, Consolas, monospace; font-size: 13px; }
  </style>
  <defs>
    <marker id="arw-membership" viewBox="0 0 12 12" refX="10" refY="6" markerWidth="7" markerHeight="7" orient="auto-start-reverse">
      <path d="M1 1 L11 6 L1 11 z" fill="oklch(72% 0.105 190)"/>
    </marker>
    <marker id="arw-request" viewBox="0 0 12 12" refX="10" refY="6" markerWidth="7" markerHeight="7" orient="auto-start-reverse">
      <path d="M1 1 L11 6 L1 11 z" fill="oklch(88% 0.03 110)"/>
    </marker>
    <marker id="arw-feedback" viewBox="0 0 12 12" refX="10" refY="6" markerWidth="7" markerHeight="7" orient="auto-start-reverse">
      <path d="M1 1 L11 6 L1 11 z" fill="oklch(66% 0.145 38)"/>
    </marker>
    <marker id="arw-adapter" viewBox="0 0 12 12" refX="10" refY="6" markerWidth="7" markerHeight="7" orient="auto-start-reverse">
      <path d="M1 1 L11 6 L1 11 z" fill="oklch(62% 0.012 145)"/>
    </marker>
    <linearGradient id="cyl-discovery" x1="0" y1="0" x2="1" y2="0">
      <stop offset="0" stop-color="oklch(37% 0.068 190)"/>
      <stop offset="0.34" stop-color="oklch(47% 0.085 190)"/>
      <stop offset="1" stop-color="oklch(37% 0.068 190)"/>
    </linearGradient>
    <linearGradient id="cyl-health" x1="0" y1="0" x2="1" y2="0">
      <stop offset="0" stop-color="oklch(38% 0.1 38)"/>
      <stop offset="0.34" stop-color="oklch(48% 0.126 38)"/>
      <stop offset="1" stop-color="oklch(38% 0.1 38)"/>
    </linearGradient>
  </defs>
  <rect x="-859" y="-216.75" width="1731.2" height="1378.25" class="board-bg"/>
  <g class="grid" aria-hidden="true">
    <line class="g-minor" x1="165" y1="-357.5" x2="-1485" y2="467.5"/>
    <line class="g-minor" x1="247.5" y1="-316.25" x2="-1402.5" y2="508.75"/>
    <line class="g-minor" x1="330" y1="-275" x2="-1320" y2="550"/>
    <line class="g-minor" x1="412.5" y1="-233.75" x2="-1237.5" y2="591.25"/>
    <line class="g-minor" x1="495" y1="-192.5" x2="-1155" y2="632.5"/>
    <line class="g-minor" x1="577.5" y1="-151.25" x2="-1072.5" y2="673.75"/>
    <line class="g-minor" x1="660" y1="-110" x2="-990" y2="715"/>
    <line class="g-minor" x1="742.5" y1="-68.75" x2="-907.5" y2="756.25"/>
    <line class="g-minor" x1="825" y1="-27.5" x2="-825" y2="797.5"/>
    <line class="g-minor" x1="907.5" y1="13.75" x2="-742.5" y2="838.75"/>
    <line class="g-minor" x1="990" y1="55" x2="-660" y2="880"/>
    <line class="g-minor" x1="1072.5" y1="96.25" x2="-577.5" y2="921.25"/>
    <line class="g-minor" x1="1155" y1="137.5" x2="-495" y2="962.5"/>
    <line class="g-minor" x1="1237.5" y1="178.75" x2="-412.5" y2="1003.75"/>
    <line class="g-minor" x1="1320" y1="220" x2="-330" y2="1045"/>
    <line class="g-minor" x1="1402.5" y1="261.25" x2="-247.5" y2="1086.25"/>
    <line class="g-minor" x1="1485" y1="302.5" x2="-165" y2="1127.5"/>
    <line class="g-minor" x1="1567.5" y1="343.75" x2="-82.5" y2="1168.75"/>
    <line class="g-minor" x1="1650" y1="385" x2="0" y2="1210"/>
    <line class="g-minor" x1="1732.5" y1="426.25" x2="82.5" y2="1251.25"/>
    <line class="g-minor" x1="1815" y1="467.5" x2="165" y2="1292.5"/>
    <line class="g-minor" x1="1897.5" y1="508.75" x2="247.5" y2="1333.75"/>
    <line class="g-minor" x1="1980" y1="550" x2="330" y2="1375"/>
    <line class="g-minor" x1="165" y1="-357.5" x2="2035" y2="577.5"/>
    <line class="g-minor" x1="82.5" y1="-316.25" x2="1952.5" y2="618.75"/>
    <line class="g-minor" x1="0" y1="-275" x2="1870" y2="660"/>
    <line class="g-minor" x1="-82.5" y1="-233.75" x2="1787.5" y2="701.25"/>
    <line class="g-minor" x1="-165" y1="-192.5" x2="1705" y2="742.5"/>
    <line class="g-minor" x1="-247.5" y1="-151.25" x2="1622.5" y2="783.75"/>
    <line class="g-minor" x1="-330" y1="-110" x2="1540" y2="825"/>
    <line class="g-minor" x1="-412.5" y1="-68.75" x2="1457.5" y2="866.25"/>
    <line class="g-minor" x1="-495" y1="-27.5" x2="1375" y2="907.5"/>
    <line class="g-minor" x1="-577.5" y1="13.75" x2="1292.5" y2="948.75"/>
    <line class="g-minor" x1="-660" y1="55" x2="1210" y2="990"/>
    <line class="g-minor" x1="-742.5" y1="96.25" x2="1127.5" y2="1031.25"/>
    <line class="g-minor" x1="-825" y1="137.5" x2="1045" y2="1072.5"/>
    <line class="g-minor" x1="-907.5" y1="178.75" x2="962.5" y2="1113.75"/>
    <line class="g-minor" x1="-990" y1="220" x2="880" y2="1155"/>
    <line class="g-minor" x1="-1072.5" y1="261.25" x2="797.5" y2="1196.25"/>
    <line class="g-minor" x1="-1155" y1="302.5" x2="715" y2="1237.5"/>
    <line class="g-minor" x1="-1237.5" y1="343.75" x2="632.5" y2="1278.75"/>
    <line class="g-minor" x1="-1320" y1="385" x2="550" y2="1320"/>
    <line class="g-minor" x1="-1402.5" y1="426.25" x2="467.5" y2="1361.25"/>
    <line class="g-minor" x1="-1485" y1="467.5" x2="385" y2="1402.5"/>
  </g>
  <g class="edges">
  <path class="edge edge-membership" d="M583,38.5 L407,126.5" marker-end="url(#arw-membership)"/>
  <path class="edge edge-membership" d="M407,203.5 L583,291.5" marker-end="url(#arw-membership)"/>
  <path class="edge edge-membership" d="M583,368.5 L407,456.5" marker-end="url(#arw-membership)"/>
  <path class="edge edge-feedback" d="M77,368.5 L253,456.5" marker-end="url(#arw-feedback)"/>
  <path class="edge edge-request" d="M407,533.5 L577.5,618.75" marker-end="url(#arw-request)"/>
  <path class="edge edge-request" d="M577.5,701.25 L407,786.5" marker-end="url(#arw-request)"/>
  <path class="edge edge-request" d="M407,863.5 L572,946" marker-end="url(#arw-request)"/>
  <path class="edge edge-feedback" d="M577.5,1031.25 L385,1127.5 L-275,797.5 L-77,698.5" marker-end="url(#arw-feedback)"/>
  <path class="edge edge-feedback" d="M-275,797.5 L-605,632.5 L-407,533.5" marker-end="url(#arw-feedback)"/>
  <path class="edge edge-feedback" d="M-253,456.5 L-77,368.5" marker-end="url(#arw-feedback)"/>
  <path class="edge edge-feedback" d="M-407,456.5 L-583,368.5" marker-end="url(#arw-feedback)"/>
  <path class="edge edge-feedback" d="M77,621.5 L253,533.5" marker-end="url(#arw-feedback)"/>
  <path class="edge edge-adapter" d="M77,38.5 L253,126.5" marker-end="url(#arw-adapter)"/>
  <path class="edge edge-adapter" d="M-77,38.5 L-330,165 L-77,291.5" marker-end="url(#arw-adapter)"/>
  </g>
  <g class="blk" data-crate="tokio">
    <polygon class="contact" points="-9.9,-72.6 145.2,4.95 -9.9,82.5 -165,4.95"/>
    <polygon points="137.5,-12 0,56.75 0,68.75 137.5,0" fill="oklch(35% 0.009 145)"/>
    <polygon points="0,56.75 -137.5,-12 -137.5,0 0,68.75" fill="oklch(45% 0.011 145)"/>
    <polygon points="0,-80.75 137.5,-12 0,56.75 -137.5,-12" fill="oklch(60% 0.012 145)" class="face-top" stroke-dasharray="7 5"/>
  </g>
  <g class="blk" data-crate="discovery">
    <ellipse class="contact" cx="330" cy="175" rx="81.5" ry="41.75"/>
    <ellipse cx="330" cy="165" rx="71.5" ry="35.75" fill="oklch(37% 0.068 190)"/>
    <rect x="258.5" y="131" width="143" height="34" fill="url(#cyl-discovery)"/>
    <ellipse cx="330" cy="131" rx="71.5" ry="35.75" fill="oklch(66% 0.105 190)" class="face-top"/>
  </g>
  <g class="blk" data-crate="discovery">
    <polygon class="contact" points="650.1,257.4 805.2,334.95 650.1,412.5 495,334.95"/>
    <polygon points="797.5,321 660,389.75 660,398.75 797.5,330" fill="oklch(37% 0.068 190)"/>
    <polygon points="660,389.75 522.5,321 522.5,330 660,398.75" fill="oklch(37% 0.068 190)"/>
    <polygon points="660,252.25 797.5,321 660,389.75 522.5,321" fill="oklch(47% 0.085 190)" class="face-top"/>
    <polygon points="797.5,306 660,374.75 660,383.75 797.5,315" fill="oklch(37% 0.068 190)"/>
    <polygon points="660,374.75 522.5,306 522.5,315 660,383.75" fill="oklch(37% 0.068 190)"/>
    <polygon points="660,237.25 797.5,306 660,374.75 522.5,306" fill="oklch(47% 0.085 190)" class="face-top"/>
    <polygon points="797.5,289 660,357.75 660,368.75 797.5,300" fill="oklch(37% 0.068 190)"/>
    <polygon points="660,357.75 522.5,289 522.5,300 660,368.75" fill="oklch(47% 0.085 190)"/>
    <polygon points="660,220.25 797.5,289 660,357.75 522.5,289" fill="oklch(66% 0.105 190)" class="face-top"/>
  </g>
  <g class="blk" data-crate="health">
    <ellipse class="contact" cx="0" cy="340" rx="81.5" ry="41.75"/>
    <ellipse cx="0" cy="330" rx="71.5" ry="35.75" fill="oklch(38% 0.1 38)"/>
    <rect x="-71.5" y="296" width="143" height="34" fill="url(#cyl-health)"/>
    <ellipse cx="0" cy="296" rx="71.5" ry="35.75" fill="oklch(66% 0.152 38)" class="face-top"/>
  </g>
  <g class="blk" data-crate="observe">
    <polygon class="contact" points="-669.9,257.4 -514.8,334.95 -669.9,412.5 -825,334.95"/>
    <polygon points="-522.5,320 -660,388.75 -660,398.75 -522.5,330" fill="oklch(46% 0.022 88)"/>
    <polygon points="-660,388.75 -797.5,320 -797.5,330 -660,398.75" fill="oklch(59% 0.028 88)"/>
    <polygon points="-660,251.25 -522.5,320 -660,388.75 -797.5,320" fill="oklch(59% 0.028 88)" class="face-top"/>
    <polygon points="-642.4,276 -660,284.8 -660,328.8 -642.4,320" fill="oklch(46% 0.022 88)"/>
    <polygon points="-660,284.8 -677.6,276 -677.6,320 -660,328.8" fill="oklch(59% 0.028 88)"/>
    <polygon points="-660,267.2 -642.4,276 -660,284.8 -677.6,276" fill="oklch(80% 0.032 88)" class="face-top"/>
    <polygon points="-605,266 -660,293.5 -660,303.5 -605,276" fill="oklch(46% 0.022 88)"/>
    <polygon points="-660,293.5 -715,266 -715,276 -660,303.5" fill="oklch(59% 0.028 88)"/>
    <polygon points="-660,238.5 -605,266 -660,293.5 -715,266" fill="oklch(80% 0.032 88)" class="face-top"/>
  </g>
  <g class="blk" data-crate="core">
    <polygon class="contact" points="320.1,416.9 486.2,499.95 320.1,583 154,499.95"/>
    <polygon points="478.5,485 330,559.25 330,569.25 478.5,495" fill="oklch(39% 0.094 112)"/>
    <polygon points="330,559.25 181.5,485 181.5,495 330,569.25" fill="oklch(50% 0.118 112)"/>
    <polygon points="330,410.75 478.5,485 330,559.25 181.5,485" fill="oklch(50% 0.118 112)" class="face-top"/>
    <polygon points="363,435.1 330,451.6 330,469.6 363,453.1" fill="oklch(39% 0.094 112)"/>
    <polygon points="330,451.6 297,435.1 297,453.1 330,469.6" fill="oklch(50% 0.118 112)"/>
    <polygon points="330,418.6 363,435.1 330,451.6 297,435.1" fill="oklch(70% 0.152 112)" class="face-top"/>
    <polygon points="426.8,467 393.8,483.5 393.8,501.5 426.8,485" fill="oklch(39% 0.094 112)"/>
    <polygon points="393.8,483.5 360.8,467 360.8,485 393.8,501.5" fill="oklch(50% 0.118 112)"/>
    <polygon points="393.8,450.5 426.8,467 393.8,483.5 360.8,467" fill="oklch(70% 0.152 112)" class="face-top"/>
    <polygon points="299.2,467 266.2,483.5 266.2,501.5 299.2,485" fill="oklch(39% 0.094 112)"/>
    <polygon points="266.2,483.5 233.2,467 233.2,485 266.2,501.5" fill="oklch(50% 0.118 112)"/>
    <polygon points="266.2,450.5 299.2,467 266.2,483.5 233.2,467" fill="oklch(70% 0.152 112)" class="face-top"/>
    <polygon points="363,508.9 330,525.4 330,533.4 363,516.9" fill="oklch(23% 0.008 145)"/>
    <polygon points="330,525.4 297,508.9 297,516.9 330,533.4" fill="oklch(28% 0.01 145)"/>
    <polygon points="330,492.4 363,508.9 330,525.4 297,508.9" fill="oklch(34% 0.01 145)" class="face-top" stroke-dasharray="7 5"/>
  </g>
  <g class="blk" data-crate="health">
    <polygon class="contact" points="-339.9,416.9 -173.8,499.95 -339.9,583 -506,499.95"/>
    <polygon points="-181.5,485 -330,559.25 -330,569.25 -181.5,495" fill="oklch(38% 0.1 38)"/>
    <polygon points="-330,559.25 -478.5,485 -478.5,495 -330,569.25" fill="oklch(48% 0.126 38)"/>
    <polygon points="-330,410.75 -181.5,485 -330,559.25 -478.5,485" fill="oklch(48% 0.126 38)" class="face-top"/>
    <polygon points="-361.9,453.7 -380.6,463.05 -380.6,469.05 -361.9,459.7" fill="oklch(23% 0.008 145)"/>
    <polygon points="-380.6,463.05 -399.3,453.7 -399.3,459.7 -380.6,469.05" fill="oklch(28% 0.01 145)"/>
    <polygon points="-380.6,444.35 -361.9,453.7 -380.6,463.05 -399.3,453.7" fill="oklch(34% 0.01 145)" class="face-top" stroke-dasharray="7 5"/>
    <polygon points="-336.6,457.35 -355.3,466.7 -355.3,481.7 -336.6,472.35" fill="oklch(38% 0.1 38)"/>
    <polygon points="-355.3,466.7 -374,457.35 -374,472.35 -355.3,481.7" fill="oklch(48% 0.126 38)"/>
    <polygon points="-355.3,448 -336.6,457.35 -355.3,466.7 -374,457.35" fill="oklch(66% 0.152 38)" class="face-top"/>
    <polygon points="-311.3,470 -330,479.35 -330,494.35 -311.3,485" fill="oklch(38% 0.1 38)"/>
    <polygon points="-330,479.35 -348.7,470 -348.7,485 -330,494.35" fill="oklch(48% 0.126 38)"/>
    <polygon points="-330,460.65 -311.3,470 -330,479.35 -348.7,470" fill="oklch(66% 0.152 38)" class="face-top"/>
    <polygon points="-286,482.65 -304.7,492 -304.7,507 -286,497.65" fill="oklch(38% 0.1 38)"/>
    <polygon points="-304.7,492 -323.4,482.65 -323.4,497.65 -304.7,507" fill="oklch(48% 0.126 38)"/>
    <polygon points="-304.7,473.3 -286,482.65 -304.7,492 -323.4,482.65" fill="oklch(66% 0.152 38)" class="face-top"/>
    <polygon points="-260.7,495.3 -279.4,504.65 -279.4,519.65 -260.7,510.3" fill="oklch(38% 0.1 38)"/>
    <polygon points="-279.4,504.65 -298.1,495.3 -298.1,510.3 -279.4,519.65" fill="oklch(48% 0.126 38)"/>
    <polygon points="-279.4,485.95 -260.7,495.3 -279.4,504.65 -298.1,495.3" fill="oklch(66% 0.152 38)" class="face-top"/>
  </g>
  <g class="blk" data-crate="core">
    <polygon class="contact" points="650.1,590.15 799.7,664.95 650.1,739.75 500.5,664.95"/>
    <polygon points="580.25,665.88 551.06,611.4 551.06,645.4 580.25,699.88" fill="oklch(50% 0.118 112)"/>
    <polygon points="768.94,640.6 689.19,680.47 689.19,714.47 768.94,674.6" fill="oklch(39% 0.094 112)"/>
    <polygon points="689.19,680.47 580.25,665.88 580.25,699.88 689.19,714.47" fill="oklch(50% 0.118 112)"/>
    <polygon points="689.19,680.47 580.25,665.88 551.06,611.4 630.81,571.53 739.75,586.13 768.94,640.6" fill="oklch(70% 0.152 112)" class="face-top"/>
  </g>
  <g class="blk" data-crate="core">
    <polygon class="contact" points="-9.9,584.65 150.7,664.95 -9.9,745.25 -170.5,664.95"/>
    <polygon points="143,650 0,721.5 0,731.5 143,660" fill="oklch(39% 0.094 112)"/>
    <polygon points="0,721.5 -143,650 -143,660 0,731.5" fill="oklch(50% 0.118 112)"/>
    <polygon points="0,578.5 143,650 0,721.5 -143,650" fill="oklch(50% 0.118 112)" class="face-top"/>
    <polygon points="70.4,584.2 39.6,599.6 39.6,645.6 70.4,630.2" fill="oklch(39% 0.094 112)"/>
    <polygon points="39.6,599.6 8.8,584.2 8.8,630.2 39.6,645.6" fill="oklch(50% 0.118 112)"/>
    <polygon points="39.6,568.8 70.4,584.2 39.6,599.6 8.8,584.2" fill="oklch(70% 0.152 112)" class="face-top"/>
    <polygon points="30.8,624 0,639.4 0,665.4 30.8,650" fill="oklch(39% 0.094 112)"/>
    <polygon points="0,639.4 -30.8,624 -30.8,650 0,665.4" fill="oklch(50% 0.118 112)"/>
    <polygon points="0,608.6 30.8,624 0,639.4 -30.8,624" fill="oklch(70% 0.152 112)" class="face-top"/>
    <polygon points="-8.8,633.8 -39.6,649.2 -39.6,685.2 -8.8,669.8" fill="oklch(39% 0.094 112)"/>
    <polygon points="-39.6,649.2 -70.4,633.8 -70.4,669.8 -39.6,685.2" fill="oklch(50% 0.118 112)"/>
    <polygon points="-39.6,618.4 -8.8,633.8 -39.6,649.2 -70.4,633.8" fill="oklch(70% 0.152 112)" class="face-top"/>
  </g>
  <g class="blk" data-crate="tower">
    <polygon class="contact" points="320.1,752.4 475.2,829.95 320.1,907.5 165,829.95"/>
    <polygon points="467.5,795 330,863.75 330,893.75 467.5,825" fill="oklch(40% 0.038 245)"/>
    <polygon points="330,863.75 192.5,795 192.5,825 330,893.75" fill="oklch(51% 0.048 245)"/>
    <polygon points="330,726.25 467.5,795 330,863.75 192.5,795" fill="oklch(70% 0.058 245)" class="face-top"/>
  </g>
  <g class="blk" data-crate="external">
    <polygon class="contact" points="650.1,900.9 838.2,994.95 650.1,1089 462,994.95"/>
    <polygon points="830.5,978 660,1063.25 660,1075.25 830.5,990" fill="oklch(27% 0.009 145)"/>
    <polygon points="660,1063.25 489.5,978 489.5,990 660,1075.25" fill="oklch(34% 0.011 145)"/>
    <polygon points="660,892.75 830.5,978 660,1063.25 489.5,978" fill="oklch(45% 0.012 145)" class="face-top" stroke-dasharray="7 5"/>
    <polygon points="754.05,925.87 712.25,946.78 712.25,972.78 754.05,951.87" fill="oklch(35% 0.012 145)"/>
    <polygon points="712.25,946.78 670.45,925.88 670.45,951.88 712.25,972.78" fill="oklch(44% 0.014 145)"/>
    <polygon points="712.25,904.98 754.05,925.87 712.25,946.78 670.45,925.88" fill="oklch(66% 0.016 145)"/>
    <polygon points="701.8,952 660,972.9 660,998.9 701.8,978" fill="oklch(35% 0.012 145)"/>
    <polygon points="660,972.9 618.2,952 618.2,978 660,998.9" fill="oklch(44% 0.014 145)"/>
    <polygon points="660,931.1 701.8,952 660,972.9 618.2,952" fill="oklch(66% 0.016 145)"/>
    <polygon points="649.55,978.12 607.75,999.03 607.75,1025.03 649.55,1004.12" fill="oklch(35% 0.012 145)"/>
    <polygon points="607.75,999.03 565.95,978.13 565.95,1004.13 607.75,1025.03" fill="oklch(44% 0.014 145)"/>
    <polygon points="607.75,957.22 649.55,978.12 607.75,999.03 565.95,978.13" fill="oklch(66% 0.016 145)"/>
  </g>
  <g class="edge-labels">
  <g class="edge-label edge-label-membership">
    <rect x="361.8" y="58.5" width="134.2" height="33" rx="6" class="label-bg"/>
    <text x="485" y="76.5" text-anchor="end"><tspan x="485" dy="0">apply batch</tspan></text>
  </g>
  <g class="edge-label edge-label-membership">
    <rect x="422.8" y="207.5" width="144.4" height="54" rx="6" class="label-bg"/>
    <text x="495" y="225.5" text-anchor="middle"><tspan x="495" dy="0">revision n+1</tspan><tspan x="495" dy="21">atomic swap</tspan></text>
  </g>
  <g class="edge-label edge-label-membership">
    <rect x="500" y="394.5" width="164.8" height="54" rx="6" class="label-bg"/>
    <text x="511" y="412.5" text-anchor="start"><tspan x="511" dy="0">coherent slice</tspan><tspan x="511" dy="21">of candidates</tspan></text>
  </g>
  <g class="edge-label edge-label-feedback">
    <rect x="82.6" y="372.5" width="164.8" height="54" rx="6" class="label-bg"/>
    <text x="165" y="390.5" text-anchor="middle"><tspan x="165" dy="0">probe class &#183;</tspan><tspan x="165" dy="21">circuit permit</tspan></text>
  </g>
  <g class="edge-label edge-label-request">
    <rect x="409.85" y="536.13" width="164.8" height="54" rx="6" class="label-bg"/>
    <text x="492.25" y="554.13" text-anchor="middle"><tspan x="492.25" dy="0">eligible slice</tspan><tspan x="492.25" dy="21">+ request key</tspan></text>
  </g>
  <g class="edge-label edge-label-request">
    <rect x="497.25" y="725.88" width="164.8" height="54" rx="6" class="label-bg"/>
    <text x="508.25" y="743.88" text-anchor="start"><tspan x="508.25" dy="0">an index,</tspan><tspan x="508.25" dy="21">not a dispatch</tspan></text>
  </g>
  <g class="edge-label edge-label-request">
    <rect x="402" y="864.75" width="175" height="54" rx="6" class="label-bg"/>
    <text x="489.5" y="882.75" text-anchor="middle"><tspan x="489.5" dy="0">one readiness</tspan><tspan x="489.5" dy="21">permit consumed</tspan></text>
  </g>
  <g class="edge-label edge-label-feedback">
    <rect x="-200.8" y="974.5" width="511.6" height="33" rx="6" class="label-bg"/>
    <text x="55" y="992.5" text-anchor="middle"><tspan x="55" dy="0">completed attempt &#183; latency, class, cancellation</tspan></text>
  </g>
  <g class="edge-label edge-label-feedback">
    <rect x="-522.4" y="727" width="164.8" height="54" rx="6" class="label-bg"/>
    <text x="-440" y="745" text-anchor="middle"><tspan x="-440" dy="0">cancellation</tspan><tspan x="-440" dy="21">is not failure</tspan></text>
  </g>
  <g class="edge-label edge-label-feedback">
    <rect x="-406.2" y="394.5" width="236.2" height="54" rx="6" class="label-bg"/>
    <text x="-181" y="412.5" text-anchor="end"><tspan x="-181" dy="0">consecutive results &#183;</tspan><tspan x="-181" dy="21">circuit epoch</tspan></text>
  </g>
  <g class="edge-label edge-label-feedback">
    <rect x="-717.8" y="424.5" width="205.6" height="33" rx="6" class="label-bg"/>
    <text x="-615" y="442.5" text-anchor="middle"><tspan x="-615" dy="0">no endpoint labels</tspan></text>
  </g>
  <g class="edge-label edge-label-feedback">
    <rect x="15.6" y="559.5" width="144.4" height="54" rx="6" class="label-bg"/>
    <text x="149" y="577.5" text-anchor="end"><tspan x="149" dy="0">sampled load</tspan><tspan x="149" dy="21">metric</tspan></text>
  </g>
  <g class="edge-label edge-label-adapter">
    <rect x="87.7" y="92.5" width="154.6" height="33" rx="6" class="label-bg"/>
    <text x="165" y="110.5" text-anchor="middle"><tspan x="165" dy="0">revision wait</tspan></text>
  </g>
  <g class="edge-label edge-label-adapter">
    <rect x="-270.6" y="240.25" width="134.2" height="54" rx="6" class="label-bg"/>
    <text x="-203.5" y="258.25" text-anchor="middle"><tspan x="-203.5" dy="0">due probe &#183;</tspan><tspan x="-203.5" dy="21">timeout</tspan></text>
  </g>
  </g>
  <g class="pill" data-crate="discovery">
    <rect x="459" y="-15.5" width="336" height="58" rx="8" class="pill-bg"/>
    <text x="627" y="7.5" text-anchor="middle" class="pill-title">DNS &#183; xDS &#183; config &#183; k8s</text>
    <text x="627" y="29.5" text-anchor="middle" class="pill-sub">whatever knows the membership</text>
  </g>
  <g class="pill" data-crate="tokio">
    <line x1="0" y1="-80.75" x2="0" y2="-112.75" class="pill-stem"/>
    <rect x="-120.2" y="-182.75" width="240.4" height="70" rx="8" class="pill-bg"/>
    <text x="0" y="-158.75" text-anchor="middle" class="pill-title">Tokio adapter</text>
    <text x="0" y="-137.75" text-anchor="middle" class="pill-sub"><tspan x="0" dy="0">timers &#183; revision waits</tspan></text>
    <text x="0" y="-122.75" text-anchor="middle" class="pill-crate" fill="oklch(60% 0.012 145)">poise-tokio</text>
  </g>
  <g class="pill" data-crate="discovery">
    <line x1="258.5" y1="95.25" x2="258.5" y2="63.25" class="pill-stem"/>
    <rect x="147.1" y="-6.75" width="222.8" height="70" rx="8" class="pill-bg"/>
    <text x="258.5" y="17.25" text-anchor="middle" class="pill-title">Directory</text>
    <text x="258.5" y="38.25" text-anchor="middle" class="pill-sub"><tspan x="258.5" dy="0">single writer, staged</tspan></text>
    <text x="258.5" y="53.25" text-anchor="middle" class="pill-crate" fill="oklch(66% 0.105 190)">poise-discovery</text>
  </g>
  <g class="pill" data-crate="discovery">
    <line x1="660" y1="220.25" x2="660" y2="188.25" class="pill-stem"/>
    <rect x="544.2" y="118.25" width="231.6" height="70" rx="8" class="pill-bg"/>
    <text x="660" y="142.25" text-anchor="middle" class="pill-title">Snapshot</text>
    <text x="660" y="163.25" text-anchor="middle" class="pill-sub"><tspan x="660" dy="0">immutable &#183; revision n</tspan></text>
    <text x="660" y="178.25" text-anchor="middle" class="pill-crate" fill="oklch(66% 0.105 190)">poise-discovery</text>
  </g>
  <g class="pill" data-crate="health">
    <line x1="-71.5" y1="260.25" x2="-71.5" y2="228.25" class="pill-stem"/>
    <rect x="-204.9" y="158.25" width="266.8" height="70" rx="8" class="pill-bg"/>
    <text x="-71.5" y="182.25" text-anchor="middle" class="pill-title">Health</text>
    <text x="-71.5" y="203.25" text-anchor="middle" class="pill-sub"><tspan x="-71.5" dy="0">probes, circuits, ejection</tspan></text>
    <text x="-71.5" y="218.25" text-anchor="middle" class="pill-crate" fill="oklch(66% 0.152 38)">poise-health</text>
  </g>
  <g class="pill" data-crate="observe">
    <line x1="-660" y1="197.25" x2="-660" y2="165.25" class="pill-stem"/>
    <rect x="-749.4" y="95.25" width="178.8" height="70" rx="8" class="pill-bg"/>
    <text x="-660" y="119.25" text-anchor="middle" class="pill-title">Observer</text>
    <text x="-660" y="140.25" text-anchor="middle" class="pill-sub"><tspan x="-660" dy="0">bounded counters</tspan></text>
    <text x="-660" y="155.25" text-anchor="middle" class="pill-crate" fill="oklch(80% 0.032 88)">poise-observe</text>
  </g>
  <g class="pill" data-crate="core">
    <line x1="330" y1="392.75" x2="330" y2="360.75" class="pill-stem"/>
    <rect x="192.2" y="290.75" width="275.6" height="70" rx="8" class="pill-bg"/>
    <text x="330" y="314.75" text-anchor="middle" class="pill-title">Candidate view</text>
    <text x="330" y="335.75" text-anchor="middle" class="pill-sub"><tspan x="330" dy="0">one excluded, with a reason</tspan></text>
    <text x="330" y="350.75" text-anchor="middle" class="pill-crate" fill="oklch(70% 0.152 112)">poise-core</text>
  </g>
  <g class="pill" data-crate="health">
    <line x1="-330" y1="395.75" x2="-330" y2="363.75" class="pill-stem"/>
    <rect x="-450.2" y="293.75" width="240.4" height="70" rx="8" class="pill-bg"/>
    <text x="-330" y="317.75" text-anchor="middle" class="pill-title">Outcome window</text>
    <text x="-330" y="338.75" text-anchor="middle" class="pill-sub"><tspan x="-330" dy="0">bounded rolling history</tspan></text>
    <text x="-330" y="353.75" text-anchor="middle" class="pill-crate" fill="oklch(66% 0.152 38)">poise-health</text>
  </g>
  <g class="pill" data-crate="core">
    <line x1="660" y1="554.5" x2="660" y2="522.5" class="pill-stem"/>
    <rect x="570.6" y="452.5" width="178.8" height="70" rx="8" class="pill-bg"/>
    <text x="660" y="476.5" text-anchor="middle" class="pill-title">Policy</text>
    <text x="660" y="497.5" text-anchor="middle" class="pill-sub"><tspan x="660" dy="0">returns an index</tspan></text>
    <text x="660" y="512.5" text-anchor="middle" class="pill-crate" fill="oklch(70% 0.152 112)">poise-core</text>
  </g>
  <g class="pill" data-crate="core">
    <line x1="0" y1="532.5" x2="0" y2="500.5" class="pill-stem"/>
    <rect x="-111.4" y="430.5" width="222.8" height="70" rx="8" class="pill-bg"/>
    <text x="0" y="454.5" text-anchor="middle" class="pill-title">Load trackers</text>
    <text x="0" y="475.5" text-anchor="middle" class="pill-sub"><tspan x="0" dy="0">in-flight &#183; peak EWMA</tspan></text>
    <text x="0" y="490.5" text-anchor="middle" class="pill-crate" fill="oklch(70% 0.152 112)">poise-core</text>
  </g>
  <g class="pill" data-crate="tower">
    <line x1="330" y1="726.25" x2="330" y2="694.25" class="pill-stem"/>
    <rect x="229.1" y="624.25" width="201.8" height="70" rx="8" class="pill-bg"/>
    <text x="330" y="648.25" text-anchor="middle" class="pill-title">Tower Balance</text>
    <text x="330" y="669.25" text-anchor="middle" class="pill-sub"><tspan x="330" dy="0">readiness retained</tspan></text>
    <text x="330" y="684.25" text-anchor="middle" class="pill-crate" fill="oklch(70% 0.058 245)">poise-tower</text>
  </g>
  <g class="pill" data-crate="external">
    <line x1="660" y1="866.75" x2="660" y2="834.75" class="pill-stem"/>
    <rect x="517.8" y="764.75" width="284.4" height="70" rx="8" class="pill-bg"/>
    <text x="660" y="788.75" text-anchor="middle" class="pill-title">Endpoint pool</text>
    <text x="660" y="809.75" text-anchor="middle" class="pill-sub"><tspan x="660" dy="0">the services you dispatch to</tspan></text>
    <text x="660" y="824.75" text-anchor="middle" class="pill-crate" fill="oklch(68% 0.012 145)">outside Poise</text>
  </g>
</svg>
